<?xml version="1.0" encoding="utf-8"?>
<!-- Generator: Adobe Illustrator 21.0.0, SVG Export Plug-In . SVG Version: 6.00 Build 0)  -->
<svg version="1.1" id="Layer_1" xmlns="http://www.w3.org/2000/svg" xmlns:xlink="http://www.w3.org/1999/xlink" x="0px" y="0px"
	 viewBox="0 0 512 512" style="enable-background:new 0 0 512 512;" xml:space="preserve">
<style type="text/css">
	.st0{fill:#00FF4C;}
	.st1{fill:#00E22B;}
</style>
<path class="st0" d="M147.6,301.3c-7.5-7.5-7.5-19.8,0-27.3l95.7-95.4c7.3-7.3,19.1-7.5,26.6-0.6l94.3,94c3.8,3.8,5.7,8.7,5.7,13.7
	c0,4.9-1.9,9.9-5.6,13.6c-7.5,7.5-19.7,7.6-27.3,0l-81-79.8l-81.1,81.9C167.4,308.9,155.2,308.9,147.6,301.3L147.6,301.3z"/>
<path class="st1" d="M256,464c114.9,0,208-93.1,208-208S370.9,48,256,48S48,141.1,48,256S141.1,464,256,464z M256,432
	c-47,0-91.2-18.3-124.4-51.6C98.3,347.2,80,303,80,256s18.3-91.2,51.6-124.4C164.8,98.3,209,80,256,80s91.2,18.3,124.4,51.6
	C413.7,164.8,432,209,432,256s-18.3,91.2-51.6,124.4C347.2,413.7,303,432,256,432z"/>
</svg>
